<svg xmlns="http://www.w3.org/2000/svg" xmlns:xlink="http://www.w3.org/1999/xlink" width="256" height="256" viewBox="0 0 256 256" version="1.1" xml:space="preserve">

<defs>
</defs>
<g style="stroke: none; stroke-width: 0; stroke-dasharray: none; stroke-linecap: butt; stroke-linejoin: miter; stroke-miterlimit: 10; fill: none; fill-rule: nonzero; opacity: 1;" transform="translate(1.4065934065934016 1.4065934065934016) scale(2.81 2.81)" >
	<path d="M 45.763 58.723 H 18.003 c -0.359 0 -0.691 -0.192 -0.869 -0.505 c -0.178 -0.313 -0.174 -0.696 0.009 -1.005 L 33.188 30.16 c 0.18 -0.304 0.507 -0.49 0.86 -0.49 h 26.289 c 0.352 0 0.678 0.185 0.858 0.487 s 0.188 0.677 0.021 0.987 L 46.643 58.197 C 46.469 58.521 46.131 58.723 45.763 58.723 z M 19.759 56.723 h 25.406 L 58.662 31.67 H 34.617 L 19.759 56.723 z" style="stroke: none; stroke-width: 1; stroke-dasharray: none; stroke-linecap: butt; stroke-linejoin: miter; stroke-miterlimit: 10; fill: rgb(0,0,0); fill-rule: nonzero; opacity: 1;" transform=" matrix(1 0 0 1 0 0) " stroke-linecap="round" />
	<path d="M 18.003 75.726 C 8.076 75.726 0 67.649 0 57.723 s 8.076 -18.003 18.003 -18.003 s 18.003 8.077 18.003 18.003 S 27.931 75.726 18.003 75.726 z M 18.003 41.719 C 9.179 41.719 2 48.898 2 57.723 s 7.179 16.003 16.003 16.003 s 16.003 -7.179 16.003 -16.003 S 26.828 41.719 18.003 41.719 z" style="stroke: none; stroke-width: 1; stroke-dasharray: none; stroke-linecap: butt; stroke-linejoin: miter; stroke-miterlimit: 10; fill: rgb(0,0,0); fill-rule: nonzero; opacity: 1;" transform=" matrix(1 0 0 1 0 0) " stroke-linecap="round" />
	<path d="M 71.996 75.726 c -9.927 0 -18.003 -8.076 -18.003 -18.003 s 8.076 -18.003 18.003 -18.003 C 81.924 39.719 90 47.796 90 57.723 S 81.924 75.726 71.996 75.726 z M 71.996 41.719 c -8.824 0 -16.003 7.179 -16.003 16.003 s 7.179 16.003 16.003 16.003 S 88 66.547 88 57.723 S 80.82 41.719 71.996 41.719 z" style="stroke: none; stroke-width: 1; stroke-dasharray: none; stroke-linecap: butt; stroke-linejoin: miter; stroke-miterlimit: 10; fill: rgb(0,0,0); fill-rule: nonzero; opacity: 1;" transform=" matrix(1 0 0 1 0 0) " stroke-linecap="round" />
	<path d="M 71.996 58.723 c -0.387 0 -0.755 -0.226 -0.918 -0.604 L 56.366 23.982 c -0.219 -0.507 0.015 -1.096 0.522 -1.314 c 0.505 -0.217 1.095 0.015 1.313 0.522 l 14.712 34.137 c 0.219 0.507 -0.015 1.096 -0.522 1.313 C 72.263 58.696 72.129 58.723 71.996 58.723 z" style="stroke: none; stroke-width: 1; stroke-dasharray: none; stroke-linecap: butt; stroke-linejoin: miter; stroke-miterlimit: 10; fill: rgb(0,0,0); fill-rule: nonzero; opacity: 1;" transform=" matrix(1 0 0 1 0 0) " stroke-linecap="round" />
	<path d="M 45.708 58.723 c -0.387 0 -0.756 -0.226 -0.919 -0.604 L 30.077 23.982 c -0.218 -0.507 0.016 -1.096 0.522 -1.314 c 0.509 -0.22 1.095 0.016 1.314 0.522 l 14.712 34.137 c 0.219 0.507 -0.016 1.096 -0.522 1.313 C 45.974 58.696 45.84 58.723 45.708 58.723 z" style="stroke: none; stroke-width: 1; stroke-dasharray: none; stroke-linecap: butt; stroke-linejoin: miter; stroke-miterlimit: 10; fill: rgb(0,0,0); fill-rule: nonzero; opacity: 1;" transform=" matrix(1 0 0 1 0 0) " stroke-linecap="round" />
	<path d="M 67.956 31.67 c -0.553 0 -1 -0.448 -1 -1 s 0.447 -1 1 -1 c 1.401 0 2.541 -1.14 2.541 -2.542 c 0 -1.402 -1.14 -2.542 -2.541 -2.542 H 57.284 c -0.553 0 -1 -0.448 -1 -1 s 0.447 -1 1 -1 h 10.672 c 2.504 0 4.541 2.038 4.541 4.542 S 70.46 31.67 67.956 31.67 z" style="stroke: none; stroke-width: 1; stroke-dasharray: none; stroke-linecap: butt; stroke-linejoin: miter; stroke-miterlimit: 10; fill: rgb(0,0,0); fill-rule: nonzero; opacity: 1;" transform=" matrix(1 0 0 1 0 0) " stroke-linecap="round" />
	<path d="M 36.858 24.586 H 25.189 c -0.552 0 -1 -0.448 -1 -1 s 0.448 -1 1 -1 h 11.669 c 0.552 0 1 0.448 1 1 S 37.41 24.586 36.858 24.586 z" style="stroke: none; stroke-width: 1; stroke-dasharray: none; stroke-linecap: butt; stroke-linejoin: miter; stroke-miterlimit: 10; fill: rgb(0,0,0); fill-rule: nonzero; opacity: 1;" transform=" matrix(1 0 0 1 0 0) " stroke-linecap="round" />
</g>
</svg>
