<svg xmlns="http://www.w3.org/2000/svg" xmlns:xlink="http://www.w3.org/1999/xlink" version="1.1" width="256" height="256" viewBox="0 0 256 256" xml:space="preserve">

<defs>
</defs>
<g style="stroke: none; stroke-width: 0; stroke-dasharray: none; stroke-linecap: butt; stroke-linejoin: miter; stroke-miterlimit: 10; fill: none; fill-rule: nonzero; opacity: 1;" transform="translate(1.4065934065934016 1.4065934065934016) scale(2.81 2.81)" >
	<path d="M 45.258 44.616 h -5.361 c -0.552 0 -1 -0.448 -1 -1 s 0.448 -1 1 -1 h 5.361 c 0.552 0 1 0.448 1 1 S 45.811 44.616 45.258 44.616 z" style="stroke: none; stroke-width: 1; stroke-dasharray: none; stroke-linecap: butt; stroke-linejoin: miter; stroke-miterlimit: 10; fill: rgb(255,255,255); fill-rule: nonzero; opacity: 1;" transform=" matrix(1 0 0 1 0 0) " stroke-linecap="round" />
	<circle cx="71.34" cy="57.05" r="2" style="stroke: none; stroke-width: 1; stroke-dasharray: none; stroke-linecap: butt; stroke-linejoin: miter; stroke-miterlimit: 10; fill: rgb(255,255,255); fill-rule: nonzero; opacity: 1;" transform="  matrix(1 0 0 1 0 0) "/>
	<circle cx="19.18" cy="57.05" r="2" style="stroke: none; stroke-width: 1; stroke-dasharray: none; stroke-linecap: butt; stroke-linejoin: miter; stroke-miterlimit: 10; fill: rgb(255,255,255); fill-rule: nonzero; opacity: 1;" transform="  matrix(1 0 0 1 0 0) "/>
	<path d="M 76.03 36.872 l -8.539 -1.304 l -2.654 -2.908 c -5.529 -6.058 -13.405 -9.532 -21.608 -9.532 h -6.39 c -9.386 0 -18.069 4.68 -23.189 12.463 l -0.048 0.063 C 5.826 38.354 0 45.816 0 53.137 c 0 2.752 2.239 4.991 4.991 4.991 h 4.429 c 0.539 4.911 4.709 8.744 9.761 8.744 c 5.052 0 9.221 -3.834 9.761 -8.744 h 32.634 c 0.539 4.911 4.709 8.744 9.761 8.744 s 9.222 -3.834 9.762 -8.744 h 3.911 c 2.752 0 4.991 -2.239 4.991 -4.991 C 90 44.948 84.125 38.108 76.03 36.872 z M 43.229 25.128 c 7.643 0 14.98 3.237 20.132 8.881 l 1.364 1.494 H 38.63 l -4.153 -10.256 c 0.781 -0.071 1.567 -0.119 2.361 -0.119 H 43.229 z M 32.428 25.514 l 4.045 9.989 H 16.155 C 20.13 30.169 25.953 26.629 32.428 25.514 z M 19.181 64.872 c -4.314 0 -7.824 -3.51 -7.824 -7.823 s 3.51 -7.823 7.824 -7.823 s 7.823 3.51 7.823 7.823 S 23.495 64.872 19.181 64.872 z M 71.336 64.872 c -4.313 0 -7.823 -3.51 -7.823 -7.823 s 3.51 -7.823 7.823 -7.823 c 4.314 0 7.824 3.51 7.824 7.823 S 75.65 64.872 71.336 64.872 z M 85.009 56.128 h -3.895 c -0.466 -4.986 -4.671 -8.902 -9.778 -8.902 s -9.31 3.916 -9.777 8.902 H 28.957 c -0.466 -4.986 -4.671 -8.902 -9.777 -8.902 c -5.106 0 -9.311 3.916 -9.777 8.902 H 4.991 C 3.342 56.128 2 54.786 2 53.137 c 0 -6.547 5.318 -13.24 12.39 -15.634 h 23.564 c 0.001 0 0.002 0 0.003 0 c 0.001 0 0.002 0 0.003 0 h 28.954 l 8.814 1.346 C 82.839 39.935 88 45.943 88 53.137 C 88 54.786 86.658 56.128 85.009 56.128 z" style="stroke: none; stroke-width: 1; stroke-dasharray: none; stroke-linecap: butt; stroke-linejoin: miter; stroke-miterlimit: 10; fill: rgb(255,255,255); fill-rule: nonzero; opacity: 1;" transform=" matrix(1 0 0 1 0 0) " stroke-linecap="round" />
</g>
</svg>